<?xml version="1.0" encoding="UTF-8"?>
<!DOCTYPE svg PUBLIC "-//W3C//DTD SVG 1.1//EN" "http://www.w3.org/Graphics/SVG/1.1/DTD/svg11.dtd">
<svg version="1.2" width="150mm" height="30mm" viewBox="0 0 15000 3000" preserveAspectRatio="xMidYMid" fill-rule="evenodd" stroke-width="28.222" stroke-linejoin="round" xmlns="http://www.w3.org/2000/svg" xmlns:ooo="http://xml.openoffice.org/svg/export" xmlns:xlink="http://www.w3.org/1999/xlink" xmlns:presentation="http://sun.com/xmlns/staroffice/presentation" xmlns:smil="http://www.w3.org/2001/SMIL20/" xmlns:anim="urn:oasis:names:tc:opendocument:xmlns:animation:1.0" xml:space="preserve">
 <defs class="ClipPathGroup">
  <clipPath id="presentation_clip_path" clipPathUnits="userSpaceOnUse">
   <rect x="0" y="0" width="15000" height="3000"/>
  </clipPath>
  <clipPath id="presentation_clip_path_shrink" clipPathUnits="userSpaceOnUse">
   <rect x="15" y="3" width="14970" height="2994"/>
  </clipPath>
 </defs>
 <defs class="TextShapeIndex">
  <g ooo:slide="id1" ooo:id-list="id3 id4"/>
 </defs>
 <defs class="EmbeddedBulletChars">
  <g id="bullet-char-template-57356" transform="scale(0.00048828125,-0.00048828125)">
   <path d="M 580,1141 L 1163,571 580,0 -4,571 580,1141 Z"/>
  </g>
  <g id="bullet-char-template-57354" transform="scale(0.00048828125,-0.00048828125)">
   <path d="M 8,1128 L 1137,1128 1137,0 8,0 8,1128 Z"/>
  </g>
  <g id="bullet-char-template-10146" transform="scale(0.00048828125,-0.00048828125)">
   <path d="M 174,0 L 602,739 174,1481 1456,739 174,0 Z M 1358,739 L 309,1346 659,739 1358,739 Z"/>
  </g>
  <g id="bullet-char-template-10132" transform="scale(0.00048828125,-0.00048828125)">
   <path d="M 2015,739 L 1276,0 717,0 1260,543 174,543 174,936 1260,936 717,1481 1274,1481 2015,739 Z"/>
  </g>
  <g id="bullet-char-template-10007" transform="scale(0.00048828125,-0.00048828125)">
   <path d="M 0,-2 C -7,14 -16,27 -25,37 L 356,567 C 262,823 215,952 215,954 215,979 228,992 255,992 264,992 276,990 289,987 310,991 331,999 354,1012 L 381,999 492,748 772,1049 836,1024 860,1049 C 881,1039 901,1025 922,1006 886,937 835,863 770,784 769,783 710,716 594,584 L 774,223 C 774,196 753,168 711,139 L 727,119 C 717,90 699,76 672,76 641,76 570,178 457,381 L 164,-76 C 142,-110 111,-127 72,-127 30,-127 9,-110 8,-76 1,-67 -2,-52 -2,-32 -2,-23 -1,-13 0,-2 Z"/>
  </g>
  <g id="bullet-char-template-10004" transform="scale(0.00048828125,-0.00048828125)">
   <path d="M 285,-33 C 182,-33 111,30 74,156 52,228 41,333 41,471 41,549 55,616 82,672 116,743 169,778 240,778 293,778 328,747 346,684 L 369,508 C 377,444 397,411 428,410 L 1163,1116 C 1174,1127 1196,1133 1229,1133 1271,1133 1292,1118 1292,1087 L 1292,965 C 1292,929 1282,901 1262,881 L 442,47 C 390,-6 338,-33 285,-33 Z"/>
  </g>
  <g id="bullet-char-template-9679" transform="scale(0.00048828125,-0.00048828125)">
   <path d="M 813,0 C 632,0 489,54 383,161 276,268 223,411 223,592 223,773 276,916 383,1023 489,1130 632,1184 813,1184 992,1184 1136,1130 1245,1023 1353,916 1407,772 1407,592 1407,412 1353,268 1245,161 1136,54 992,0 813,0 Z"/>
  </g>
  <g id="bullet-char-template-8226" transform="scale(0.00048828125,-0.00048828125)">
   <path d="M 346,457 C 273,457 209,483 155,535 101,586 74,649 74,723 74,796 101,859 155,911 209,963 273,989 346,989 419,989 480,963 531,910 582,859 608,796 608,723 608,648 583,586 532,535 482,483 420,457 346,457 Z"/>
  </g>
  <g id="bullet-char-template-8211" transform="scale(0.00048828125,-0.00048828125)">
   <path d="M -4,459 L 1135,459 1135,606 -4,606 -4,459 Z"/>
  </g>
  <g id="bullet-char-template-61548" transform="scale(0.00048828125,-0.00048828125)">
   <path d="M 173,740 C 173,903 231,1043 346,1159 462,1274 601,1332 765,1332 928,1332 1067,1274 1183,1159 1299,1043 1357,903 1357,740 1357,577 1299,437 1183,322 1067,206 928,148 765,148 601,148 462,206 346,322 231,437 173,577 173,740 Z"/>
  </g>
 </defs>
 <g>
  <g id="id2" class="Master_Slide">
   <g id="bg-id2" class="Background"/>
   <g id="bo-id2" class="BackgroundObjects"/>
  </g>
 </g>
 <g class="SlideGroup">
  <g>
   <g id="container-id1">
    <g id="id1" class="Slide" clip-path="url(#presentation_clip_path)">
     <g class="Page">
      <g class="com.sun.star.drawing.CustomShape">
       <g id="id3">
        <rect class="BoundingBox" stroke="none" fill="none" x="899" y="899" width="13204" height="1304"/>
        <path fill="rgb(42,96,153)" stroke="none" d="M 14101,1551 C 14101,1665 13796,1777 13217,1876 12637,1975 11804,2057 10801,2114 9797,2171 8659,2201 7501,2201 6342,2201 5204,2171 4200,2114 3197,2057 2364,1975 1784,1876 1205,1777 900,1665 900,1551 900,1436 1205,1324 1784,1225 2364,1126 3197,1044 4200,987 5204,930 6342,900 7500,900 8659,900 9797,930 10801,987 11804,1044 12637,1126 13217,1225 13796,1324 14101,1436 14101,1550 L 14101,1551 Z"/>
        <path fill="none" stroke="rgb(52,101,164)" d="M 14101,1551 C 14101,1665 13796,1777 13217,1876 12637,1975 11804,2057 10801,2114 9797,2171 8659,2201 7501,2201 6342,2201 5204,2171 4200,2114 3197,2057 2364,1975 1784,1876 1205,1777 900,1665 900,1551 900,1436 1205,1324 1784,1225 2364,1126 3197,1044 4200,987 5204,930 6342,900 7500,900 8659,900 9797,930 10801,987 11804,1044 12637,1126 13217,1225 13796,1324 14101,1436 14101,1550 L 14101,1551 Z"/>
       </g>
      </g>
      <g class="com.sun.star.drawing.CustomShape">
       <g id="id4">
        <rect class="BoundingBox" stroke="none" fill="none" x="2187" y="1287" width="10635" height="657"/>
        <path fill="rgb(255,255,255)" stroke="none" d="M 2200,1308 L 2434,1308 2434,1788 2200,1788 2200,1308 Z M 2797,1553 L 2573,1539 2576,1531 2580,1523 2584,1516 2589,1509 2593,1503 2599,1497 2604,1492 2610,1487 2616,1482 2623,1477 2630,1473 2639,1469 2647,1465 2657,1461 2668,1457 2679,1454 2687,1451 2696,1449 2706,1447 2716,1444 2729,1443 2741,1441 2767,1438 2796,1436 2826,1434 2856,1433 2889,1432 2939,1433 2983,1434 3023,1436 3058,1439 3073,1441 3088,1443 3102,1446 3116,1449 3130,1453 3142,1457 3153,1462 3164,1467 3171,1471 3178,1475 3184,1480 3191,1485 3197,1490 3202,1496 3207,1502 3211,1509 3215,1516 3218,1522 3221,1528 3224,1535 3226,1542 3227,1548 3228,1554 3228,1560 3228,1714 3228,1725 3229,1736 3231,1745 3232,1749 3233,1752 3235,1756 3237,1760 3239,1764 3242,1768 3249,1777 3258,1788 3038,1788 3032,1781 3027,1776 3023,1772 3022,1769 3021,1768 3020,1766 3019,1763 3017,1758 3013,1745 3002,1751 2991,1757 2978,1762 2967,1767 2956,1771 2945,1775 2933,1779 2921,1781 2905,1785 2889,1788 2872,1790 2854,1792 2836,1794 2817,1795 2798,1796 2777,1796 2751,1795 2725,1794 2703,1792 2681,1788 2662,1784 2652,1782 2643,1780 2635,1777 2627,1774 2619,1770 2612,1767 2599,1759 2592,1756 2587,1752 2582,1748 2577,1744 2573,1739 2569,1735 2566,1730 2563,1726 2561,1721 2559,1716 2557,1711 2556,1706 2555,1696 2556,1686 2558,1677 2561,1668 2565,1660 2571,1652 2578,1645 2586,1637 2596,1631 2601,1628 2607,1624 2613,1622 2620,1619 2636,1613 2653,1608 2674,1604 2696,1600 2720,1596 2747,1593 2854,1580 2891,1575 2916,1572 2936,1568 2957,1564 3000,1556 3000,1550 2999,1545 2997,1539 2995,1535 2994,1533 2993,1531 2991,1529 2989,1527 2987,1525 2985,1524 2983,1523 2981,1521 2979,1520 2976,1519 2974,1518 2971,1517 2968,1516 2964,1516 2961,1514 2957,1514 2949,1513 2940,1512 2930,1512 2919,1512 2905,1512 2892,1512 2880,1513 2869,1514 2859,1516 2849,1517 2841,1520 2837,1521 2833,1522 2830,1523 2828,1524 2825,1525 2822,1527 2820,1528 2817,1530 2813,1534 2808,1538 2804,1542 2801,1547 2797,1553 Z M 3000,1623 L 2899,1640 2882,1643 2867,1645 2853,1648 2841,1651 2830,1653 2822,1656 2815,1659 2812,1660 2809,1662 2804,1664 2801,1667 2799,1668 2797,1670 2796,1671 2795,1673 2794,1674 2793,1676 2791,1678 2790,1679 2790,1681 2789,1682 2789,1686 2789,1690 2790,1693 2791,1695 2793,1697 2794,1699 2795,1700 2796,1702 2797,1703 2799,1705 2801,1707 2802,1708 2804,1710 2807,1711 2809,1712 2811,1713 2814,1714 2817,1715 2820,1717 2823,1717 2826,1718 2833,1719 2840,1721 2848,1721 2856,1722 2866,1722 2875,1722 2885,1721 2894,1720 2903,1719 2911,1718 2920,1715 2930,1713 2938,1711 2946,1708 2953,1705 2960,1702 2966,1699 2972,1696 2977,1692 2981,1689 2985,1685 2988,1681 2992,1676 2994,1671 2996,1667 2998,1662 2999,1656 3000,1650 3000,1644 3000,1623 Z M 4010,1788 L 3792,1788 3792,1732 3779,1740 3767,1748 3755,1755 3743,1761 3731,1767 3718,1772 3705,1777 3693,1781 3680,1784 3667,1787 3653,1790 3638,1792 3622,1794 3606,1795 3590,1796 3571,1796 3548,1795 3526,1794 3505,1791 3495,1790 3485,1788 3476,1785 3467,1783 3459,1780 3450,1777 3442,1774 3434,1770 3427,1767 3420,1763 3413,1759 3407,1754 3402,1750 3396,1744 3392,1739 3387,1733 3382,1728 3379,1721 3373,1708 3368,1693 3366,1678 3365,1662 3365,1440 3601,1440 3601,1631 3601,1639 3602,1646 3604,1653 3606,1659 3609,1664 3610,1667 3612,1670 3614,1672 3616,1674 3619,1676 3621,1678 3624,1679 3626,1681 3629,1682 3632,1684 3636,1685 3639,1686 3643,1687 3646,1688 3651,1689 3655,1690 3663,1691 3672,1692 3681,1692 3686,1692 3691,1691 3696,1691 3701,1690 3706,1690 3710,1689 3716,1688 3720,1687 3724,1686 3728,1684 3732,1683 3736,1681 3740,1679 3743,1677 3750,1673 3753,1671 3756,1668 3759,1665 3761,1662 3764,1659 3766,1655 3770,1648 3772,1639 3774,1629 3776,1619 3776,1607 3776,1440 4010,1440 4010,1788 Z M 4154,1440 L 4373,1440 4373,1497 4381,1488 4389,1480 4397,1472 4405,1466 4413,1460 4421,1454 4429,1450 4437,1446 4447,1443 4456,1440 4465,1437 4475,1436 4486,1434 4497,1433 4509,1432 4521,1432 4534,1432 4547,1433 4561,1434 4575,1437 4590,1439 4604,1443 4619,1446 4634,1451 4561,1546 4551,1543 4542,1541 4533,1539 4525,1538 4517,1537 4510,1536 4502,1536 4496,1536 4490,1536 4485,1536 4480,1536 4475,1537 4470,1538 4465,1539 4460,1540 4456,1541 4451,1543 4447,1544 4443,1546 4439,1548 4435,1550 4431,1552 4428,1554 4425,1557 4421,1561 4417,1566 4413,1571 4409,1576 4403,1587 4398,1601 4394,1616 4391,1633 4390,1651 4389,1671 4389,1788 4154,1788 4154,1440 Z M 5350,1647 L 4882,1647 4884,1655 4886,1662 4889,1668 4893,1675 4897,1681 4902,1686 4907,1690 4910,1693 4913,1695 4917,1697 4922,1700 4926,1702 4931,1704 4936,1707 4941,1708 4946,1710 4951,1711 4957,1713 4962,1714 4969,1715 4975,1716 4981,1717 4988,1717 5001,1717 5009,1717 5017,1717 5026,1716 5035,1715 5043,1714 5051,1712 5058,1710 5066,1707 5071,1706 5076,1704 5081,1702 5086,1699 5091,1696 5096,1693 5102,1689 5107,1686 5337,1698 5324,1711 5310,1722 5295,1733 5279,1743 5263,1752 5246,1759 5229,1766 5210,1773 5191,1778 5169,1783 5145,1787 5119,1790 5091,1792 5061,1794 5029,1795 4996,1796 4967,1795 4938,1795 4912,1793 4887,1791 4865,1788 4844,1785 4823,1781 4805,1776 4788,1771 4772,1765 4756,1758 4741,1751 4728,1743 4715,1734 4703,1725 4690,1714 4679,1703 4670,1692 4663,1680 4656,1668 4651,1656 4648,1642 4646,1629 4645,1615 4646,1595 4651,1576 4658,1558 4662,1549 4668,1541 4673,1532 4680,1525 4688,1517 4696,1510 4705,1503 4715,1496 4725,1489 4736,1483 4748,1476 4760,1471 4773,1465 4786,1461 4800,1456 4814,1452 4829,1448 4845,1445 4877,1439 4913,1435 4949,1433 4989,1432 5020,1433 5051,1433 5079,1435 5107,1438 5131,1441 5154,1445 5177,1450 5196,1455 5214,1461 5232,1467 5248,1474 5262,1483 5276,1491 5288,1500 5301,1510 5311,1520 5320,1531 5328,1543 5335,1556 5340,1569 5345,1584 5348,1599 5349,1615 5350,1632 5350,1647 Z M 5113,1583 L 5111,1574 5108,1565 5105,1557 5101,1550 5095,1543 5092,1540 5089,1538 5086,1535 5083,1532 5080,1530 5076,1528 5068,1524 5064,1522 5060,1520 5056,1519 5052,1517 5047,1516 5042,1515 5033,1513 5021,1512 5010,1511 4999,1511 4992,1511 4985,1512 4979,1512 4973,1513 4967,1513 4960,1514 4954,1516 4948,1517 4943,1519 4938,1521 4933,1523 4928,1525 4923,1528 4919,1531 4914,1534 4910,1536 4905,1540 4900,1545 4895,1550 4892,1556 4889,1562 4886,1569 4884,1576 4882,1583 5113,1583 Z M 5458,1440 L 5675,1440 5675,1496 5687,1488 5700,1480 5712,1473 5724,1467 5736,1461 5748,1456 5762,1451 5774,1447 5787,1444 5800,1441 5814,1438 5830,1436 5845,1434 5861,1433 5878,1432 5896,1432 5919,1433 5941,1434 5963,1437 5973,1439 5983,1440 5992,1443 6001,1445 6009,1448 6017,1451 6026,1454 6034,1458 6041,1461 6048,1465 6055,1469 6061,1474 6066,1478 6072,1484 6076,1489 6081,1495 6086,1501 6090,1507 6095,1520 6100,1535 6102,1550 6103,1567 6103,1788 5867,1788 5867,1597 5867,1589 5866,1582 5864,1575 5862,1569 5859,1563 5857,1561 5855,1558 5853,1556 5851,1554 5849,1552 5846,1550 5843,1549 5841,1547 5838,1546 5835,1545 5831,1543 5828,1542 5825,1541 5820,1540 5816,1539 5813,1539 5809,1538 5805,1538 5796,1536 5787,1536 5782,1536 5777,1537 5772,1537 5767,1538 5762,1538 5758,1539 5752,1540 5748,1541 5744,1542 5740,1544 5736,1545 5732,1547 5728,1549 5725,1551 5718,1555 5715,1557 5712,1560 5709,1563 5707,1566 5704,1569 5702,1573 5698,1580 5696,1589 5694,1599 5692,1609 5692,1621 5692,1788 5458,1788 5458,1440 Z M 6523,1308 L 6523,1440 6652,1440 6652,1537 6523,1537 6523,1661 6523,1666 6524,1671 6524,1675 6525,1679 6526,1683 6528,1686 6529,1688 6530,1689 6531,1690 6532,1692 6534,1693 6536,1694 6537,1695 6539,1696 6541,1697 6544,1698 6547,1699 6550,1699 6552,1700 6555,1700 6558,1701 6561,1701 6564,1702 6571,1702 6578,1702 6585,1701 6593,1700 6602,1699 6612,1698 6622,1697 6643,1693 6660,1785 6618,1790 6577,1793 6537,1795 6518,1796 6499,1796 6477,1796 6458,1795 6440,1794 6423,1792 6407,1791 6393,1789 6381,1786 6375,1785 6370,1783 6360,1780 6351,1776 6342,1772 6334,1767 6327,1762 6320,1757 6314,1751 6309,1744 6304,1737 6300,1729 6297,1721 6294,1710 6292,1699 6290,1687 6289,1660 6289,1537 6203,1537 6203,1440 6289,1440 6289,1376 6523,1308 Z M 7187,1440 L 7407,1440 7407,1769 7407,1784 7407,1792 7406,1800 7404,1808 7400,1816 7397,1824 7393,1831 7388,1839 7382,1846 7376,1853 7369,1860 7362,1867 7354,1873 7346,1879 7337,1885 7327,1890 7317,1894 7307,1899 7296,1903 7284,1907 7272,1910 7258,1914 7244,1916 7230,1919 7215,1921 7198,1923 7182,1925 7148,1927 7111,1929 7073,1929 7028,1929 6987,1927 6951,1925 6917,1921 6888,1916 6873,1914 6861,1911 6849,1908 6839,1905 6829,1901 6820,1897 6812,1893 6803,1889 6796,1885 6790,1880 6784,1875 6778,1871 6773,1866 6769,1861 6765,1856 6761,1850 6758,1844 6756,1838 6754,1832 6753,1826 6752,1813 6752,1806 6752,1801 6753,1796 6979,1810 6981,1815 6984,1819 6987,1823 6990,1825 6993,1828 6995,1830 6997,1831 6999,1832 7001,1834 7003,1834 7005,1835 7013,1838 7020,1840 7027,1842 7035,1843 7043,1844 7051,1845 7060,1846 7070,1846 7083,1846 7094,1845 7105,1843 7109,1843 7114,1842 7119,1841 7123,1839 7127,1838 7131,1837 7135,1835 7139,1834 7143,1832 7146,1830 7149,1828 7152,1826 7154,1824 7157,1821 7159,1818 7161,1815 7165,1809 7167,1802 7169,1794 7171,1785 7171,1776 7171,1724 7162,1729 7154,1735 7145,1739 7136,1744 7128,1747 7119,1751 7111,1754 7102,1757 7089,1761 7075,1765 7060,1768 7046,1770 7031,1772 7016,1773 7000,1774 6985,1774 6970,1774 6956,1773 6942,1772 6927,1770 6913,1768 6900,1765 6888,1762 6875,1759 6862,1755 6851,1750 6840,1745 6829,1740 6818,1734 6807,1728 6797,1721 6788,1713 6776,1702 6765,1690 6756,1677 6748,1663 6742,1648 6737,1633 6735,1616 6734,1598 6735,1579 6738,1560 6745,1543 6752,1527 6762,1512 6767,1505 6773,1498 6780,1492 6787,1485 6795,1480 6803,1474 6813,1469 6822,1465 6831,1460 6841,1456 6851,1452 6861,1448 6872,1445 6884,1443 6895,1440 6906,1438 6918,1436 6931,1435 6957,1433 6984,1432 7001,1432 7018,1433 7034,1434 7048,1436 7062,1437 7077,1440 7089,1443 7101,1446 7112,1450 7123,1454 7134,1459 7146,1465 7157,1470 7167,1477 7177,1484 7187,1491 7187,1440 Z M 6968,1609 L 6968,1618 6970,1626 6972,1634 6975,1641 6979,1648 6981,1651 6984,1654 6987,1657 6989,1660 6993,1662 6996,1664 7000,1667 7003,1668 7008,1671 7012,1673 7016,1674 7020,1675 7024,1677 7029,1678 7033,1679 7038,1680 7043,1681 7048,1681 7058,1682 7069,1682 7081,1682 7091,1681 7096,1681 7101,1680 7105,1679 7110,1678 7115,1677 7119,1675 7123,1674 7127,1672 7132,1670 7135,1668 7140,1666 7144,1664 7148,1662 7151,1659 7154,1656 7157,1653 7159,1650 7162,1647 7166,1640 7169,1633 7171,1625 7173,1616 7173,1607 7173,1598 7171,1589 7169,1581 7165,1573 7161,1567 7158,1564 7155,1560 7152,1557 7149,1554 7146,1552 7142,1549 7133,1545 7125,1540 7121,1538 7116,1537 7112,1535 7107,1534 7103,1533 7098,1532 7093,1531 7088,1530 7083,1529 7078,1529 7071,1529 7066,1529 7055,1529 7050,1529 7045,1530 7040,1531 7035,1531 7031,1532 7026,1534 7022,1535 7017,1536 7013,1538 7009,1539 7005,1541 7001,1543 6997,1545 6994,1547 6991,1550 6988,1553 6985,1555 6983,1558 6980,1561 6978,1565 6974,1572 6972,1580 6970,1589 6968,1598 6968,1609 Z M 7549,1308 L 7784,1308 7784,1474 7793,1469 7803,1464 7812,1460 7822,1456 7831,1452 7842,1448 7852,1445 7864,1443 7875,1440 7887,1438 7898,1436 7910,1434 7923,1434 7936,1433 7949,1432 7962,1432 7989,1433 8003,1434 8015,1435 8028,1437 8040,1439 8052,1441 8064,1444 8076,1447 8087,1450 8097,1454 8108,1458 8118,1462 8128,1467 8147,1478 8156,1484 8164,1490 8171,1496 8179,1503 8185,1510 8192,1518 8202,1534 8210,1550 8216,1569 8219,1588 8220,1609 8219,1623 8218,1637 8215,1650 8212,1663 8207,1675 8201,1687 8195,1699 8186,1710 8177,1720 8168,1730 8158,1739 8147,1748 8135,1755 8122,1762 8108,1769 8094,1774 8079,1780 8064,1784 8048,1787 8032,1791 8016,1793 7999,1795 7981,1795 7963,1796 7948,1796 7934,1795 7918,1794 7904,1792 7891,1790 7877,1787 7865,1784 7851,1781 7841,1777 7831,1773 7821,1769 7811,1764 7801,1758 7789,1751 7778,1744 7767,1736 7767,1788 7549,1788 7549,1308 Z M 7782,1613 L 7782,1624 7784,1634 7786,1643 7789,1652 7793,1659 7797,1663 7799,1666 7802,1670 7805,1673 7808,1675 7812,1678 7820,1682 7824,1685 7828,1686 7832,1688 7836,1690 7841,1692 7845,1693 7850,1694 7855,1695 7860,1696 7866,1697 7871,1697 7876,1697 7882,1698 7887,1698 7892,1698 7897,1697 7902,1697 7907,1697 7912,1696 7917,1695 7921,1695 7926,1693 7931,1692 7935,1690 7939,1689 7943,1687 7947,1685 7951,1683 7954,1681 7958,1678 7961,1676 7965,1673 7967,1670 7970,1667 7973,1663 7975,1660 7979,1652 7982,1643 7984,1634 7986,1623 7986,1612 7986,1602 7984,1592 7982,1583 7979,1576 7975,1568 7970,1562 7967,1559 7964,1556 7961,1553 7958,1551 7951,1546 7947,1545 7944,1543 7940,1541 7936,1539 7932,1538 7927,1536 7923,1535 7919,1535 7914,1534 7910,1533 7905,1532 7901,1532 7896,1532 7891,1532 7879,1532 7874,1532 7868,1533 7863,1534 7857,1535 7852,1536 7847,1537 7842,1538 7838,1540 7833,1541 7829,1543 7825,1545 7821,1547 7813,1552 7809,1555 7806,1557 7803,1560 7800,1564 7797,1567 7794,1570 7789,1578 7786,1585 7784,1594 7782,1603 7782,1613 Z M 8544,1553 L 8320,1539 8324,1531 8328,1523 8332,1516 8337,1509 8341,1503 8346,1497 8351,1492 8357,1487 8363,1482 8370,1477 8377,1473 8386,1469 8395,1465 8405,1461 8415,1457 8426,1454 8434,1451 8443,1449 8453,1447 8464,1444 8476,1443 8488,1441 8514,1438 8543,1436 8573,1434 8604,1433 8636,1432 8686,1433 8731,1434 8770,1436 8805,1439 8820,1441 8835,1443 8849,1446 8864,1449 8877,1453 8889,1457 8900,1462 8911,1467 8919,1471 8926,1475 8932,1480 8938,1485 8944,1490 8949,1496 8954,1502 8958,1509 8962,1516 8965,1522 8968,1528 8971,1535 8973,1542 8974,1548 8975,1554 8975,1560 8975,1714 8975,1725 8976,1736 8978,1745 8979,1749 8980,1752 8983,1756 8985,1760 8987,1764 8990,1768 8997,1777 9005,1788 8786,1788 8779,1781 8774,1776 8770,1772 8769,1769 8768,1768 8767,1766 8766,1763 8764,1758 8760,1745 8749,1751 8738,1757 8726,1762 8714,1767 8703,1771 8692,1775 8680,1779 8669,1781 8653,1785 8636,1788 8619,1790 8602,1792 8583,1794 8564,1795 8545,1796 8525,1796 8498,1795 8473,1794 8450,1792 8428,1788 8409,1784 8400,1782 8391,1780 8382,1777 8374,1774 8366,1770 8359,1767 8346,1759 8340,1756 8335,1752 8330,1748 8325,1744 8320,1739 8316,1735 8313,1730 8310,1726 8308,1721 8306,1716 8304,1711 8303,1706 8302,1696 8303,1686 8305,1677 8308,1668 8312,1660 8318,1652 8326,1645 8334,1637 8343,1631 8348,1628 8354,1624 8360,1622 8367,1619 8383,1613 8401,1608 8421,1604 8443,1600 8468,1596 8494,1593 8602,1580 8638,1575 8664,1572 8683,1568 8704,1564 8747,1556 8747,1550 8746,1545 8744,1539 8742,1535 8741,1533 8740,1531 8738,1529 8737,1527 8735,1525 8733,1524 8731,1523 8729,1521 8727,1520 8724,1519 8722,1518 8719,1517 8715,1516 8711,1516 8708,1514 8704,1514 8696,1513 8687,1512 8677,1512 8667,1512 8653,1512 8639,1512 8627,1513 8616,1514 8606,1516 8597,1517 8589,1520 8584,1521 8580,1522 8577,1523 8575,1524 8572,1525 8569,1527 8567,1528 8564,1530 8560,1534 8555,1538 8551,1542 8548,1547 8544,1553 Z M 8747,1623 L 8646,1640 8629,1643 8614,1645 8601,1648 8589,1651 8577,1653 8569,1656 8562,1659 8559,1660 8556,1662 8551,1664 8548,1667 8546,1668 8544,1670 8543,1671 8542,1673 8541,1674 8540,1676 8539,1678 8538,1679 8538,1681 8537,1682 8537,1686 8537,1690 8538,1693 8539,1695 8540,1697 8541,1699 8542,1700 8543,1702 8544,1703 8546,1705 8548,1707 8549,1708 8551,1710 8554,1711 8556,1712 8558,1713 8561,1714 8564,1715 8567,1717 8570,1717 8573,1718 8580,1719 8588,1721 8596,1721 8604,1722 8613,1722 8622,1722 8632,1721 8641,1720 8650,1719 8659,1718 8668,1715 8677,1713 8685,1711 8693,1708 8700,1705 8707,1702 8713,1699 8720,1696 8725,1692 8729,1689 8733,1685 8736,1681 8739,1676 8741,1671 8743,1667 8745,1662 8746,1656 8747,1650 8747,1644 8747,1623 Z M 9539,1440 L 9758,1440 9758,1769 9758,1784 9758,1792 9757,1800 9755,1808 9752,1816 9749,1824 9745,1831 9740,1839 9734,1846 9728,1853 9721,1860 9714,1867 9705,1873 9697,1879 9688,1885 9679,1890 9669,1894 9659,1899 9648,1903 9635,1907 9623,1910 9610,1914 9596,1916 9582,1919 9566,1921 9550,1923 9534,1925 9499,1927 9463,1929 9424,1929 9380,1929 9339,1927 9302,1925 9269,1921 9239,1916 9225,1914 9213,1911 9201,1908 9191,1905 9181,1901 9171,1897 9163,1893 9155,1889 9148,1885 9142,1880 9136,1875 9130,1871 9125,1866 9121,1861 9117,1856 9112,1850 9109,1844 9107,1838 9105,1832 9104,1826 9103,1813 9103,1806 9103,1801 9104,1796 9331,1810 9333,1815 9336,1819 9339,1823 9342,1825 9345,1828 9347,1830 9349,1831 9351,1832 9353,1834 9355,1834 9357,1835 9364,1838 9371,1840 9379,1842 9387,1843 9395,1844 9403,1845 9412,1846 9422,1846 9434,1846 9446,1845 9457,1843 9461,1843 9466,1842 9471,1841 9475,1839 9479,1838 9483,1837 9487,1835 9490,1834 9494,1832 9497,1830 9500,1828 9503,1826 9505,1824 9509,1821 9511,1818 9513,1815 9517,1809 9519,1802 9521,1794 9523,1785 9523,1776 9523,1724 9514,1729 9505,1735 9496,1739 9488,1744 9480,1747 9471,1751 9463,1754 9454,1757 9440,1761 9426,1765 9412,1768 9398,1770 9383,1772 9367,1773 9352,1774 9337,1774 9322,1774 9307,1773 9293,1772 9279,1770 9265,1768 9252,1765 9239,1762 9226,1759 9214,1755 9203,1750 9192,1745 9181,1740 9169,1734 9159,1728 9149,1721 9140,1713 9128,1702 9117,1690 9107,1677 9099,1663 9094,1648 9089,1633 9087,1616 9086,1598 9087,1579 9090,1560 9096,1543 9103,1527 9114,1512 9119,1505 9125,1498 9132,1492 9139,1485 9147,1480 9155,1474 9164,1469 9173,1465 9183,1460 9193,1456 9203,1452 9213,1448 9224,1445 9235,1443 9247,1440 9258,1438 9270,1436 9283,1435 9308,1433 9336,1432 9353,1432 9369,1433 9386,1434 9400,1436 9414,1437 9428,1440 9440,1443 9453,1446 9464,1450 9475,1454 9486,1459 9497,1465 9509,1470 9519,1477 9529,1484 9539,1491 9539,1440 Z M 9320,1609 L 9320,1618 9322,1626 9324,1634 9327,1641 9331,1648 9333,1651 9336,1654 9339,1657 9341,1660 9345,1662 9348,1664 9352,1667 9355,1668 9359,1671 9363,1673 9367,1674 9371,1675 9375,1677 9381,1678 9385,1679 9390,1680 9395,1681 9400,1681 9410,1682 9421,1682 9432,1682 9443,1681 9448,1681 9453,1680 9457,1679 9462,1678 9467,1677 9471,1675 9475,1674 9479,1672 9484,1670 9487,1668 9491,1666 9495,1664 9499,1662 9502,1659 9505,1656 9509,1653 9511,1650 9514,1647 9518,1640 9521,1633 9523,1625 9525,1616 9525,1607 9525,1598 9523,1589 9521,1581 9517,1573 9513,1567 9510,1564 9506,1560 9503,1557 9500,1554 9497,1552 9493,1549 9485,1545 9477,1540 9473,1538 9468,1537 9464,1535 9459,1534 9455,1533 9450,1532 9445,1531 9439,1530 9434,1529 9429,1529 9423,1529 9418,1529 9407,1529 9402,1529 9397,1530 9392,1531 9387,1531 9383,1532 9378,1534 9373,1535 9368,1536 9364,1538 9360,1539 9357,1541 9353,1543 9349,1545 9346,1547 9343,1550 9340,1553 9337,1555 9335,1558 9332,1561 9330,1565 9326,1572 9324,1580 9322,1589 9320,1598 9320,1609 Z M 9900,1308 L 10136,1308 10136,1474 10145,1469 10154,1464 10163,1460 10174,1456 10183,1452 10194,1448 10204,1445 10215,1443 10226,1440 10239,1438 10250,1436 10262,1434 10275,1434 10287,1433 10301,1432 10314,1432 10341,1433 10354,1434 10367,1435 10380,1437 10392,1439 10404,1441 10415,1444 10427,1447 10439,1450 10449,1454 10460,1458 10470,1462 10479,1467 10499,1478 10508,1484 10516,1490 10523,1496 10531,1503 10537,1510 10543,1518 10553,1534 10561,1550 10568,1569 10571,1588 10572,1609 10571,1623 10570,1637 10567,1650 10564,1663 10558,1675 10552,1687 10546,1699 10538,1710 10529,1720 10520,1730 10510,1739 10499,1748 10486,1755 10474,1762 10460,1769 10446,1774 10431,1780 10415,1784 10400,1787 10384,1791 10368,1793 10350,1795 10333,1795 10315,1796 10300,1796 10285,1795 10270,1794 10256,1792 10243,1790 10228,1787 10216,1784 10203,1781 10193,1777 10183,1773 10173,1769 10162,1764 10152,1758 10141,1751 10130,1744 10119,1736 10119,1788 9900,1788 9900,1308 Z M 10134,1613 L 10134,1624 10136,1634 10138,1643 10141,1652 10145,1659 10148,1663 10150,1666 10153,1670 10156,1673 10159,1675 10163,1678 10172,1682 10176,1685 10180,1686 10184,1688 10188,1690 10193,1692 10197,1693 10202,1694 10207,1695 10212,1696 10217,1697 10222,1697 10227,1697 10234,1698 10239,1698 10244,1698 10249,1697 10254,1697 10259,1697 10264,1696 10269,1695 10273,1695 10278,1693 10282,1692 10286,1690 10290,1689 10294,1687 10299,1685 10303,1683 10306,1681 10310,1678 10313,1676 10317,1673 10319,1670 10322,1667 10325,1663 10327,1660 10331,1652 10334,1643 10336,1634 10338,1623 10338,1612 10338,1602 10336,1592 10334,1583 10331,1576 10327,1568 10322,1562 10319,1559 10316,1556 10313,1553 10310,1551 10303,1546 10299,1545 10295,1543 10291,1541 10287,1539 10283,1538 10279,1536 10275,1535 10271,1535 10266,1534 10262,1533 10257,1532 10253,1532 10248,1532 10243,1532 10230,1532 10225,1532 10219,1533 10214,1534 10209,1535 10204,1536 10199,1537 10194,1538 10190,1540 10185,1541 10181,1543 10177,1545 10173,1547 10164,1552 10160,1555 10157,1557 10154,1560 10151,1564 10148,1567 10146,1570 10141,1578 10138,1585 10136,1594 10134,1603 10134,1613 Z M 10654,1615 L 10655,1595 10660,1577 10663,1568 10667,1559 10672,1550 10677,1542 10683,1534 10690,1526 10699,1518 10707,1511 10716,1504 10726,1497 10737,1490 10748,1484 10761,1477 10773,1472 10786,1466 10799,1461 10813,1456 10829,1452 10844,1448 10859,1445 10892,1440 10926,1436 10964,1433 11002,1432 11047,1433 11088,1436 11127,1441 11146,1444 11164,1447 11181,1451 11197,1456 11212,1461 11228,1466 11242,1472 11255,1478 11267,1485 11279,1493 11297,1506 11312,1518 11325,1532 11335,1547 11344,1562 11349,1579 11354,1595 11355,1613 11354,1633 11348,1651 11341,1669 11336,1677 11331,1686 11325,1694 11318,1702 11310,1710 11302,1717 11293,1724 11282,1731 11261,1744 11249,1751 11237,1757 11224,1762 11210,1767 11196,1772 11181,1776 11166,1780 11150,1783 11117,1788 11081,1792 11043,1795 11003,1796 10968,1795 10933,1793 10902,1790 10871,1785 10842,1779 10814,1772 10789,1763 10766,1753 10752,1746 10739,1739 10728,1732 10717,1725 10707,1717 10698,1709 10689,1700 10682,1692 10675,1684 10670,1674 10665,1665 10661,1656 10658,1646 10656,1635 10654,1615 Z M 10888,1615 L 10888,1626 10890,1636 10893,1646 10897,1655 10901,1663 10904,1667 10907,1671 10910,1674 10913,1678 10917,1681 10921,1684 10925,1686 10929,1689 10934,1691 10938,1693 10943,1695 10948,1697 10953,1699 10959,1700 10964,1702 10969,1703 10975,1703 10980,1704 10986,1705 10992,1705 11004,1706 11010,1706 11016,1705 11022,1705 11029,1704 11034,1703 11040,1703 11045,1702 11051,1700 11056,1699 11061,1697 11065,1695 11070,1693 11074,1691 11079,1689 11083,1686 11087,1684 11092,1681 11095,1678 11099,1674 11102,1671 11105,1667 11107,1663 11112,1655 11115,1646 11118,1636 11119,1625 11120,1613 11120,1602 11118,1592 11116,1583 11112,1574 11108,1566 11105,1562 11102,1558 11099,1555 11096,1551 11092,1549 11087,1546 11079,1540 11074,1538 11070,1536 11065,1534 11061,1532 11056,1531 11051,1529 11046,1528 11041,1527 11035,1526 11030,1525 11024,1524 11018,1524 11012,1524 11006,1524 10994,1524 10988,1524 10982,1525 10976,1526 10971,1527 10965,1528 10960,1529 10954,1531 10949,1532 10944,1534 10939,1536 10935,1539 10930,1541 10922,1546 10918,1549 10914,1552 10911,1556 10908,1559 10905,1562 10902,1567 10897,1575 10894,1583 10890,1593 10889,1604 10888,1615 Z M 11467,1654 L 11717,1654 11717,1788 11467,1788 11467,1654 Z M 12119,1440 L 12230,1440 12230,1538 12119,1538 12119,1788 11885,1788 11885,1538 11797,1538 11797,1440 11885,1440 11885,1424 11886,1414 11887,1402 11890,1390 11893,1378 11895,1371 11898,1366 11901,1360 11904,1354 11908,1349 11913,1344 11918,1339 11923,1335 11929,1331 11935,1328 11942,1324 11950,1321 11958,1317 11966,1315 11975,1312 11985,1309 11995,1307 12007,1305 12021,1304 12034,1302 12049,1301 12065,1300 12102,1300 12136,1300 12177,1302 12281,1308 12254,1388 12217,1385 12200,1385 12193,1384 12186,1384 12179,1384 12172,1385 12166,1385 12160,1386 12155,1386 12150,1388 12148,1388 12146,1389 12144,1390 12141,1390 12138,1392 12135,1394 12132,1396 12129,1399 12127,1401 12125,1404 12123,1407 12122,1410 12121,1411 12121,1414 12120,1421 12119,1429 12119,1440 Z M 12319,1440 L 12538,1440 12538,1497 12546,1488 12554,1480 12562,1472 12570,1466 12578,1460 12586,1454 12594,1450 12602,1446 12612,1443 12621,1440 12630,1437 12640,1436 12651,1434 12662,1433 12674,1432 12686,1432 12699,1432 12712,1433 12726,1434 12740,1437 12755,1439 12769,1443 12784,1446 12799,1451 12726,1546 12716,1543 12707,1541 12698,1539 12690,1538 12682,1537 12675,1536 12667,1536 12661,1536 12655,1536 12650,1536 12645,1536 12640,1537 12635,1538 12630,1539 12625,1540 12621,1541 12616,1543 12612,1544 12608,1546 12604,1548 12600,1550 12596,1552 12593,1554 12590,1557 12586,1561 12582,1566 12578,1571 12574,1576 12568,1587 12563,1601 12559,1616 12556,1633 12555,1651 12554,1671 12554,1788 12319,1788 12319,1440 Z"/>
        <path fill="none" stroke="rgb(0,0,0)" stroke-width="26" stroke-linejoin="miter" d="M 2200,1308 L 2434,1308 2434,1788 2200,1788 2200,1308 Z"/>
        <path fill="none" stroke="rgb(0,0,0)" stroke-width="26" stroke-linejoin="miter" d="M 2797,1553 L 2573,1539 2576,1531 2580,1523 2584,1516 2589,1509 2593,1503 2599,1497 2604,1492 2610,1487 2616,1482 2623,1477 2630,1473 2639,1469 2647,1465 2657,1461 2668,1457 2679,1454 2687,1451 2696,1449 2706,1447 2716,1444 2729,1443 2741,1441 2767,1438 2796,1436 2826,1434 2856,1433 2889,1432 2939,1433 2983,1434 3023,1436 3058,1439 3073,1441 3088,1443 3102,1446 3116,1449 3130,1453 3142,1457 3153,1462 3164,1467 3171,1471 3178,1475 3184,1480 3191,1485 3197,1490 3202,1496 3207,1502 3211,1509 3215,1516 3218,1522 3221,1528 3224,1535 3226,1542 3227,1548 3228,1554 3228,1560 3228,1714 3228,1725 3229,1736 3231,1745 3232,1749 3233,1752 3235,1756 3237,1760 3239,1764 3242,1768 3249,1777 3258,1788 3038,1788 3032,1781 3027,1776 3023,1772 3022,1769 3021,1768 3020,1766 3019,1763 3017,1758 3013,1745 3002,1751 2991,1757 2978,1762 2967,1767 2956,1771 2945,1775 2933,1779 2921,1781 2905,1785 2889,1788 2872,1790 2854,1792 2836,1794 2817,1795 2798,1796 2777,1796 2751,1795 2725,1794 2703,1792 2681,1788 2662,1784 2652,1782 2643,1780 2635,1777 2627,1774 2619,1770 2612,1767 2599,1759 2592,1756 2587,1752 2582,1748 2577,1744 2573,1739 2569,1735 2566,1730 2563,1726 2561,1721 2559,1716 2557,1711 2556,1706 2555,1696 2556,1686 2558,1677 2561,1668 2565,1660 2571,1652 2578,1645 2586,1637 2596,1631 2601,1628 2607,1624 2613,1622 2620,1619 2636,1613 2653,1608 2674,1604 2696,1600 2720,1596 2747,1593 2854,1580 2891,1575 2916,1572 2936,1568 2957,1564 3000,1556 3000,1550 2999,1545 2997,1539 2995,1535 2994,1533 2993,1531 2991,1529 2989,1527 2987,1525 2985,1524 2983,1523 2981,1521 2979,1520 2976,1519 2974,1518 2971,1517 2968,1516 2964,1516 2961,1514 2957,1514 2949,1513 2940,1512 2930,1512 2919,1512 2905,1512 2892,1512 2880,1513 2869,1514 2859,1516 2849,1517 2841,1520 2837,1521 2833,1522 2830,1523 2828,1524 2825,1525 2822,1527 2820,1528 2817,1530 2813,1534 2808,1538 2804,1542 2801,1547 2797,1553 Z"/>
        <path fill="none" stroke="rgb(0,0,0)" stroke-width="26" stroke-linejoin="miter" d="M 3000,1623 L 2899,1640 2882,1643 2867,1645 2853,1648 2841,1651 2830,1653 2822,1656 2815,1659 2812,1660 2809,1662 2804,1664 2801,1667 2799,1668 2797,1670 2796,1671 2795,1673 2794,1674 2793,1676 2791,1678 2790,1679 2790,1681 2789,1682 2789,1686 2789,1690 2790,1693 2791,1695 2793,1697 2794,1699 2795,1700 2796,1702 2797,1703 2799,1705 2801,1707 2802,1708 2804,1710 2807,1711 2809,1712 2811,1713 2814,1714 2817,1715 2820,1717 2823,1717 2826,1718 2833,1719 2840,1721 2848,1721 2856,1722 2866,1722 2875,1722 2885,1721 2894,1720 2903,1719 2911,1718 2920,1715 2930,1713 2938,1711 2946,1708 2953,1705 2960,1702 2966,1699 2972,1696 2977,1692 2981,1689 2985,1685 2988,1681 2992,1676 2994,1671 2996,1667 2998,1662 2999,1656 3000,1650 3000,1644 3000,1623 Z"/>
        <path fill="none" stroke="rgb(0,0,0)" stroke-width="26" stroke-linejoin="miter" d="M 4010,1788 L 3792,1788 3792,1732 3779,1740 3767,1748 3755,1755 3743,1761 3731,1767 3718,1772 3705,1777 3693,1781 3680,1784 3667,1787 3653,1790 3638,1792 3622,1794 3606,1795 3590,1796 3571,1796 3548,1795 3526,1794 3505,1791 3495,1790 3485,1788 3476,1785 3467,1783 3459,1780 3450,1777 3442,1774 3434,1770 3427,1767 3420,1763 3413,1759 3407,1754 3402,1750 3396,1744 3392,1739 3387,1733 3382,1728 3379,1721 3373,1708 3368,1693 3366,1678 3365,1662 3365,1440 3601,1440 3601,1631 3601,1639 3602,1646 3604,1653 3606,1659 3609,1664 3610,1667 3612,1670 3614,1672 3616,1674 3619,1676 3621,1678 3624,1679 3626,1681 3629,1682 3632,1684 3636,1685 3639,1686 3643,1687 3646,1688 3651,1689 3655,1690 3663,1691 3672,1692 3681,1692 3686,1692 3691,1691 3696,1691 3701,1690 3706,1690 3710,1689 3716,1688 3720,1687 3724,1686 3728,1684 3732,1683 3736,1681 3740,1679 3743,1677 3750,1673 3753,1671 3756,1668 3759,1665 3761,1662 3764,1659 3766,1655 3770,1648 3772,1639 3774,1629 3776,1619 3776,1607 3776,1440 4010,1440 4010,1788 Z"/>
        <path fill="none" stroke="rgb(0,0,0)" stroke-width="26" stroke-linejoin="miter" d="M 4154,1440 L 4373,1440 4373,1497 4381,1488 4389,1480 4397,1472 4405,1466 4413,1460 4421,1454 4429,1450 4437,1446 4447,1443 4456,1440 4465,1437 4475,1436 4486,1434 4497,1433 4509,1432 4521,1432 4534,1432 4547,1433 4561,1434 4575,1437 4590,1439 4604,1443 4619,1446 4634,1451 4561,1546 4551,1543 4542,1541 4533,1539 4525,1538 4517,1537 4510,1536 4502,1536 4496,1536 4490,1536 4485,1536 4480,1536 4475,1537 4470,1538 4465,1539 4460,1540 4456,1541 4451,1543 4447,1544 4443,1546 4439,1548 4435,1550 4431,1552 4428,1554 4425,1557 4421,1561 4417,1566 4413,1571 4409,1576 4403,1587 4398,1601 4394,1616 4391,1633 4390,1651 4389,1671 4389,1788 4154,1788 4154,1440 Z"/>
        <path fill="none" stroke="rgb(0,0,0)" stroke-width="26" stroke-linejoin="miter" d="M 5350,1647 L 4882,1647 4884,1655 4886,1662 4889,1668 4893,1675 4897,1681 4902,1686 4907,1690 4910,1693 4913,1695 4917,1697 4922,1700 4926,1702 4931,1704 4936,1707 4941,1708 4946,1710 4951,1711 4957,1713 4962,1714 4969,1715 4975,1716 4981,1717 4988,1717 5001,1717 5009,1717 5017,1717 5026,1716 5035,1715 5043,1714 5051,1712 5058,1710 5066,1707 5071,1706 5076,1704 5081,1702 5086,1699 5091,1696 5096,1693 5102,1689 5107,1686 5337,1698 5324,1711 5310,1722 5295,1733 5279,1743 5263,1752 5246,1759 5229,1766 5210,1773 5191,1778 5169,1783 5145,1787 5119,1790 5091,1792 5061,1794 5029,1795 4996,1796 4967,1795 4938,1795 4912,1793 4887,1791 4865,1788 4844,1785 4823,1781 4805,1776 4788,1771 4772,1765 4756,1758 4741,1751 4728,1743 4715,1734 4703,1725 4690,1714 4679,1703 4670,1692 4663,1680 4656,1668 4651,1656 4648,1642 4646,1629 4645,1615 4646,1595 4651,1576 4658,1558 4662,1549 4668,1541 4673,1532 4680,1525 4688,1517 4696,1510 4705,1503 4715,1496 4725,1489 4736,1483 4748,1476 4760,1471 4773,1465 4786,1461 4800,1456 4814,1452 4829,1448 4845,1445 4877,1439 4913,1435 4949,1433 4989,1432 5020,1433 5051,1433 5079,1435 5107,1438 5131,1441 5154,1445 5177,1450 5196,1455 5214,1461 5232,1467 5248,1474 5262,1483 5276,1491 5288,1500 5301,1510 5311,1520 5320,1531 5328,1543 5335,1556 5340,1569 5345,1584 5348,1599 5349,1615 5350,1632 5350,1647 Z"/>
        <path fill="none" stroke="rgb(0,0,0)" stroke-width="26" stroke-linejoin="miter" d="M 5113,1583 L 5111,1574 5108,1565 5105,1557 5101,1550 5095,1543 5092,1540 5089,1538 5086,1535 5083,1532 5080,1530 5076,1528 5068,1524 5064,1522 5060,1520 5056,1519 5052,1517 5047,1516 5042,1515 5033,1513 5021,1512 5010,1511 4999,1511 4992,1511 4985,1512 4979,1512 4973,1513 4967,1513 4960,1514 4954,1516 4948,1517 4943,1519 4938,1521 4933,1523 4928,1525 4923,1528 4919,1531 4914,1534 4910,1536 4905,1540 4900,1545 4895,1550 4892,1556 4889,1562 4886,1569 4884,1576 4882,1583 5113,1583 Z"/>
        <path fill="none" stroke="rgb(0,0,0)" stroke-width="26" stroke-linejoin="miter" d="M 5458,1440 L 5675,1440 5675,1496 5687,1488 5700,1480 5712,1473 5724,1467 5736,1461 5748,1456 5762,1451 5774,1447 5787,1444 5800,1441 5814,1438 5830,1436 5845,1434 5861,1433 5878,1432 5896,1432 5919,1433 5941,1434 5963,1437 5973,1439 5983,1440 5992,1443 6001,1445 6009,1448 6017,1451 6026,1454 6034,1458 6041,1461 6048,1465 6055,1469 6061,1474 6066,1478 6072,1484 6076,1489 6081,1495 6086,1501 6090,1507 6095,1520 6100,1535 6102,1550 6103,1567 6103,1788 5867,1788 5867,1597 5867,1589 5866,1582 5864,1575 5862,1569 5859,1563 5857,1561 5855,1558 5853,1556 5851,1554 5849,1552 5846,1550 5843,1549 5841,1547 5838,1546 5835,1545 5831,1543 5828,1542 5825,1541 5820,1540 5816,1539 5813,1539 5809,1538 5805,1538 5796,1536 5787,1536 5782,1536 5777,1537 5772,1537 5767,1538 5762,1538 5758,1539 5752,1540 5748,1541 5744,1542 5740,1544 5736,1545 5732,1547 5728,1549 5725,1551 5718,1555 5715,1557 5712,1560 5709,1563 5707,1566 5704,1569 5702,1573 5698,1580 5696,1589 5694,1599 5692,1609 5692,1621 5692,1788 5458,1788 5458,1440 Z"/>
        <path fill="none" stroke="rgb(0,0,0)" stroke-width="26" stroke-linejoin="miter" d="M 6523,1308 L 6523,1440 6652,1440 6652,1537 6523,1537 6523,1661 6523,1666 6524,1671 6524,1675 6525,1679 6526,1683 6528,1686 6529,1688 6530,1689 6531,1690 6532,1692 6534,1693 6536,1694 6537,1695 6539,1696 6541,1697 6544,1698 6547,1699 6550,1699 6552,1700 6555,1700 6558,1701 6561,1701 6564,1702 6571,1702 6578,1702 6585,1701 6593,1700 6602,1699 6612,1698 6622,1697 6643,1693 6660,1785 6618,1790 6577,1793 6537,1795 6518,1796 6499,1796 6477,1796 6458,1795 6440,1794 6423,1792 6407,1791 6393,1789 6381,1786 6375,1785 6370,1783 6360,1780 6351,1776 6342,1772 6334,1767 6327,1762 6320,1757 6314,1751 6309,1744 6304,1737 6300,1729 6297,1721 6294,1710 6292,1699 6290,1687 6289,1660 6289,1537 6203,1537 6203,1440 6289,1440 6289,1376 6523,1308 Z"/>
        <path fill="none" stroke="rgb(0,0,0)" stroke-width="26" stroke-linejoin="miter" d="M 7187,1440 L 7407,1440 7407,1769 7407,1784 7407,1792 7406,1800 7404,1808 7400,1816 7397,1824 7393,1831 7388,1839 7382,1846 7376,1853 7369,1860 7362,1867 7354,1873 7346,1879 7337,1885 7327,1890 7317,1894 7307,1899 7296,1903 7284,1907 7272,1910 7258,1914 7244,1916 7230,1919 7215,1921 7198,1923 7182,1925 7148,1927 7111,1929 7073,1929 7028,1929 6987,1927 6951,1925 6917,1921 6888,1916 6873,1914 6861,1911 6849,1908 6839,1905 6829,1901 6820,1897 6812,1893 6803,1889 6796,1885 6790,1880 6784,1875 6778,1871 6773,1866 6769,1861 6765,1856 6761,1850 6758,1844 6756,1838 6754,1832 6753,1826 6752,1813 6752,1806 6752,1801 6753,1796 6979,1810 6981,1815 6984,1819 6987,1823 6990,1825 6993,1828 6995,1830 6997,1831 6999,1832 7001,1834 7003,1834 7005,1835 7013,1838 7020,1840 7027,1842 7035,1843 7043,1844 7051,1845 7060,1846 7070,1846 7083,1846 7094,1845 7105,1843 7109,1843 7114,1842 7119,1841 7123,1839 7127,1838 7131,1837 7135,1835 7139,1834 7143,1832 7146,1830 7149,1828 7152,1826 7154,1824 7157,1821 7159,1818 7161,1815 7165,1809 7167,1802 7169,1794 7171,1785 7171,1776 7171,1724 7162,1729 7154,1735 7145,1739 7136,1744 7128,1747 7119,1751 7111,1754 7102,1757 7089,1761 7075,1765 7060,1768 7046,1770 7031,1772 7016,1773 7000,1774 6985,1774 6970,1774 6956,1773 6942,1772 6927,1770 6913,1768 6900,1765 6888,1762 6875,1759 6862,1755 6851,1750 6840,1745 6829,1740 6818,1734 6807,1728 6797,1721 6788,1713 6776,1702 6765,1690 6756,1677 6748,1663 6742,1648 6737,1633 6735,1616 6734,1598 6735,1579 6738,1560 6745,1543 6752,1527 6762,1512 6767,1505 6773,1498 6780,1492 6787,1485 6795,1480 6803,1474 6813,1469 6822,1465 6831,1460 6841,1456 6851,1452 6861,1448 6872,1445 6884,1443 6895,1440 6906,1438 6918,1436 6931,1435 6957,1433 6984,1432 7001,1432 7018,1433 7034,1434 7048,1436 7062,1437 7077,1440 7089,1443 7101,1446 7112,1450 7123,1454 7134,1459 7146,1465 7157,1470 7167,1477 7177,1484 7187,1491 7187,1440 Z"/>
        <path fill="none" stroke="rgb(0,0,0)" stroke-width="26" stroke-linejoin="miter" d="M 6968,1609 L 6968,1618 6970,1626 6972,1634 6975,1641 6979,1648 6981,1651 6984,1654 6987,1657 6989,1660 6993,1662 6996,1664 7000,1667 7003,1668 7008,1671 7012,1673 7016,1674 7020,1675 7024,1677 7029,1678 7033,1679 7038,1680 7043,1681 7048,1681 7058,1682 7069,1682 7081,1682 7091,1681 7096,1681 7101,1680 7105,1679 7110,1678 7115,1677 7119,1675 7123,1674 7127,1672 7132,1670 7135,1668 7140,1666 7144,1664 7148,1662 7151,1659 7154,1656 7157,1653 7159,1650 7162,1647 7166,1640 7169,1633 7171,1625 7173,1616 7173,1607 7173,1598 7171,1589 7169,1581 7165,1573 7161,1567 7158,1564 7155,1560 7152,1557 7149,1554 7146,1552 7142,1549 7133,1545 7125,1540 7121,1538 7116,1537 7112,1535 7107,1534 7103,1533 7098,1532 7093,1531 7088,1530 7083,1529 7078,1529 7071,1529 7066,1529 7055,1529 7050,1529 7045,1530 7040,1531 7035,1531 7031,1532 7026,1534 7022,1535 7017,1536 7013,1538 7009,1539 7005,1541 7001,1543 6997,1545 6994,1547 6991,1550 6988,1553 6985,1555 6983,1558 6980,1561 6978,1565 6974,1572 6972,1580 6970,1589 6968,1598 6968,1609 Z"/>
        <path fill="none" stroke="rgb(0,0,0)" stroke-width="26" stroke-linejoin="miter" d="M 7549,1308 L 7784,1308 7784,1474 7793,1469 7803,1464 7812,1460 7822,1456 7831,1452 7842,1448 7852,1445 7864,1443 7875,1440 7887,1438 7898,1436 7910,1434 7923,1434 7936,1433 7949,1432 7962,1432 7989,1433 8003,1434 8015,1435 8028,1437 8040,1439 8052,1441 8064,1444 8076,1447 8087,1450 8097,1454 8108,1458 8118,1462 8128,1467 8147,1478 8156,1484 8164,1490 8171,1496 8179,1503 8185,1510 8192,1518 8202,1534 8210,1550 8216,1569 8219,1588 8220,1609 8219,1623 8218,1637 8215,1650 8212,1663 8207,1675 8201,1687 8195,1699 8186,1710 8177,1720 8168,1730 8158,1739 8147,1748 8135,1755 8122,1762 8108,1769 8094,1774 8079,1780 8064,1784 8048,1787 8032,1791 8016,1793 7999,1795 7981,1795 7963,1796 7948,1796 7934,1795 7918,1794 7904,1792 7891,1790 7877,1787 7865,1784 7851,1781 7841,1777 7831,1773 7821,1769 7811,1764 7801,1758 7789,1751 7778,1744 7767,1736 7767,1788 7549,1788 7549,1308 Z"/>
        <path fill="none" stroke="rgb(0,0,0)" stroke-width="26" stroke-linejoin="miter" d="M 7782,1613 L 7782,1624 7784,1634 7786,1643 7789,1652 7793,1659 7797,1663 7799,1666 7802,1670 7805,1673 7808,1675 7812,1678 7820,1682 7824,1685 7828,1686 7832,1688 7836,1690 7841,1692 7845,1693 7850,1694 7855,1695 7860,1696 7866,1697 7871,1697 7876,1697 7882,1698 7887,1698 7892,1698 7897,1697 7902,1697 7907,1697 7912,1696 7917,1695 7921,1695 7926,1693 7931,1692 7935,1690 7939,1689 7943,1687 7947,1685 7951,1683 7954,1681 7958,1678 7961,1676 7965,1673 7967,1670 7970,1667 7973,1663 7975,1660 7979,1652 7982,1643 7984,1634 7986,1623 7986,1612 7986,1602 7984,1592 7982,1583 7979,1576 7975,1568 7970,1562 7967,1559 7964,1556 7961,1553 7958,1551 7951,1546 7947,1545 7944,1543 7940,1541 7936,1539 7932,1538 7927,1536 7923,1535 7919,1535 7914,1534 7910,1533 7905,1532 7901,1532 7896,1532 7891,1532 7879,1532 7874,1532 7868,1533 7863,1534 7857,1535 7852,1536 7847,1537 7842,1538 7838,1540 7833,1541 7829,1543 7825,1545 7821,1547 7813,1552 7809,1555 7806,1557 7803,1560 7800,1564 7797,1567 7794,1570 7789,1578 7786,1585 7784,1594 7782,1603 7782,1613 Z"/>
        <path fill="none" stroke="rgb(0,0,0)" stroke-width="26" stroke-linejoin="miter" d="M 8544,1553 L 8320,1539 8324,1531 8328,1523 8332,1516 8337,1509 8341,1503 8346,1497 8351,1492 8357,1487 8363,1482 8370,1477 8377,1473 8386,1469 8395,1465 8405,1461 8415,1457 8426,1454 8434,1451 8443,1449 8453,1447 8464,1444 8476,1443 8488,1441 8514,1438 8543,1436 8573,1434 8604,1433 8636,1432 8686,1433 8731,1434 8770,1436 8805,1439 8820,1441 8835,1443 8849,1446 8864,1449 8877,1453 8889,1457 8900,1462 8911,1467 8919,1471 8926,1475 8932,1480 8938,1485 8944,1490 8949,1496 8954,1502 8958,1509 8962,1516 8965,1522 8968,1528 8971,1535 8973,1542 8974,1548 8975,1554 8975,1560 8975,1714 8975,1725 8976,1736 8978,1745 8979,1749 8980,1752 8983,1756 8985,1760 8987,1764 8990,1768 8997,1777 9005,1788 8786,1788 8779,1781 8774,1776 8770,1772 8769,1769 8768,1768 8767,1766 8766,1763 8764,1758 8760,1745 8749,1751 8738,1757 8726,1762 8714,1767 8703,1771 8692,1775 8680,1779 8669,1781 8653,1785 8636,1788 8619,1790 8602,1792 8583,1794 8564,1795 8545,1796 8525,1796 8498,1795 8473,1794 8450,1792 8428,1788 8409,1784 8400,1782 8391,1780 8382,1777 8374,1774 8366,1770 8359,1767 8346,1759 8340,1756 8335,1752 8330,1748 8325,1744 8320,1739 8316,1735 8313,1730 8310,1726 8308,1721 8306,1716 8304,1711 8303,1706 8302,1696 8303,1686 8305,1677 8308,1668 8312,1660 8318,1652 8326,1645 8334,1637 8343,1631 8348,1628 8354,1624 8360,1622 8367,1619 8383,1613 8401,1608 8421,1604 8443,1600 8468,1596 8494,1593 8602,1580 8638,1575 8664,1572 8683,1568 8704,1564 8747,1556 8747,1550 8746,1545 8744,1539 8742,1535 8741,1533 8740,1531 8738,1529 8737,1527 8735,1525 8733,1524 8731,1523 8729,1521 8727,1520 8724,1519 8722,1518 8719,1517 8715,1516 8711,1516 8708,1514 8704,1514 8696,1513 8687,1512 8677,1512 8667,1512 8653,1512 8639,1512 8627,1513 8616,1514 8606,1516 8597,1517 8589,1520 8584,1521 8580,1522 8577,1523 8575,1524 8572,1525 8569,1527 8567,1528 8564,1530 8560,1534 8555,1538 8551,1542 8548,1547 8544,1553 Z"/>
        <path fill="none" stroke="rgb(0,0,0)" stroke-width="26" stroke-linejoin="miter" d="M 8747,1623 L 8646,1640 8629,1643 8614,1645 8601,1648 8589,1651 8577,1653 8569,1656 8562,1659 8559,1660 8556,1662 8551,1664 8548,1667 8546,1668 8544,1670 8543,1671 8542,1673 8541,1674 8540,1676 8539,1678 8538,1679 8538,1681 8537,1682 8537,1686 8537,1690 8538,1693 8539,1695 8540,1697 8541,1699 8542,1700 8543,1702 8544,1703 8546,1705 8548,1707 8549,1708 8551,1710 8554,1711 8556,1712 8558,1713 8561,1714 8564,1715 8567,1717 8570,1717 8573,1718 8580,1719 8588,1721 8596,1721 8604,1722 8613,1722 8622,1722 8632,1721 8641,1720 8650,1719 8659,1718 8668,1715 8677,1713 8685,1711 8693,1708 8700,1705 8707,1702 8713,1699 8720,1696 8725,1692 8729,1689 8733,1685 8736,1681 8739,1676 8741,1671 8743,1667 8745,1662 8746,1656 8747,1650 8747,1644 8747,1623 Z"/>
        <path fill="none" stroke="rgb(0,0,0)" stroke-width="26" stroke-linejoin="miter" d="M 9539,1440 L 9758,1440 9758,1769 9758,1784 9758,1792 9757,1800 9755,1808 9752,1816 9749,1824 9745,1831 9740,1839 9734,1846 9728,1853 9721,1860 9714,1867 9705,1873 9697,1879 9688,1885 9679,1890 9669,1894 9659,1899 9648,1903 9635,1907 9623,1910 9610,1914 9596,1916 9582,1919 9566,1921 9550,1923 9534,1925 9499,1927 9463,1929 9424,1929 9380,1929 9339,1927 9302,1925 9269,1921 9239,1916 9225,1914 9213,1911 9201,1908 9191,1905 9181,1901 9171,1897 9163,1893 9155,1889 9148,1885 9142,1880 9136,1875 9130,1871 9125,1866 9121,1861 9117,1856 9112,1850 9109,1844 9107,1838 9105,1832 9104,1826 9103,1813 9103,1806 9103,1801 9104,1796 9331,1810 9333,1815 9336,1819 9339,1823 9342,1825 9345,1828 9347,1830 9349,1831 9351,1832 9353,1834 9355,1834 9357,1835 9364,1838 9371,1840 9379,1842 9387,1843 9395,1844 9403,1845 9412,1846 9422,1846 9434,1846 9446,1845 9457,1843 9461,1843 9466,1842 9471,1841 9475,1839 9479,1838 9483,1837 9487,1835 9490,1834 9494,1832 9497,1830 9500,1828 9503,1826 9505,1824 9509,1821 9511,1818 9513,1815 9517,1809 9519,1802 9521,1794 9523,1785 9523,1776 9523,1724 9514,1729 9505,1735 9496,1739 9488,1744 9480,1747 9471,1751 9463,1754 9454,1757 9440,1761 9426,1765 9412,1768 9398,1770 9383,1772 9367,1773 9352,1774 9337,1774 9322,1774 9307,1773 9293,1772 9279,1770 9265,1768 9252,1765 9239,1762 9226,1759 9214,1755 9203,1750 9192,1745 9181,1740 9169,1734 9159,1728 9149,1721 9140,1713 9128,1702 9117,1690 9107,1677 9099,1663 9094,1648 9089,1633 9087,1616 9086,1598 9087,1579 9090,1560 9096,1543 9103,1527 9114,1512 9119,1505 9125,1498 9132,1492 9139,1485 9147,1480 9155,1474 9164,1469 9173,1465 9183,1460 9193,1456 9203,1452 9213,1448 9224,1445 9235,1443 9247,1440 9258,1438 9270,1436 9283,1435 9308,1433 9336,1432 9353,1432 9369,1433 9386,1434 9400,1436 9414,1437 9428,1440 9440,1443 9453,1446 9464,1450 9475,1454 9486,1459 9497,1465 9509,1470 9519,1477 9529,1484 9539,1491 9539,1440 Z"/>
        <path fill="none" stroke="rgb(0,0,0)" stroke-width="26" stroke-linejoin="miter" d="M 9320,1609 L 9320,1618 9322,1626 9324,1634 9327,1641 9331,1648 9333,1651 9336,1654 9339,1657 9341,1660 9345,1662 9348,1664 9352,1667 9355,1668 9359,1671 9363,1673 9367,1674 9371,1675 9375,1677 9381,1678 9385,1679 9390,1680 9395,1681 9400,1681 9410,1682 9421,1682 9432,1682 9443,1681 9448,1681 9453,1680 9457,1679 9462,1678 9467,1677 9471,1675 9475,1674 9479,1672 9484,1670 9487,1668 9491,1666 9495,1664 9499,1662 9502,1659 9505,1656 9509,1653 9511,1650 9514,1647 9518,1640 9521,1633 9523,1625 9525,1616 9525,1607 9525,1598 9523,1589 9521,1581 9517,1573 9513,1567 9510,1564 9506,1560 9503,1557 9500,1554 9497,1552 9493,1549 9485,1545 9477,1540 9473,1538 9468,1537 9464,1535 9459,1534 9455,1533 9450,1532 9445,1531 9439,1530 9434,1529 9429,1529 9423,1529 9418,1529 9407,1529 9402,1529 9397,1530 9392,1531 9387,1531 9383,1532 9378,1534 9373,1535 9368,1536 9364,1538 9360,1539 9357,1541 9353,1543 9349,1545 9346,1547 9343,1550 9340,1553 9337,1555 9335,1558 9332,1561 9330,1565 9326,1572 9324,1580 9322,1589 9320,1598 9320,1609 Z"/>
        <path fill="none" stroke="rgb(0,0,0)" stroke-width="26" stroke-linejoin="miter" d="M 9900,1308 L 10136,1308 10136,1474 10145,1469 10154,1464 10163,1460 10174,1456 10183,1452 10194,1448 10204,1445 10215,1443 10226,1440 10239,1438 10250,1436 10262,1434 10275,1434 10287,1433 10301,1432 10314,1432 10341,1433 10354,1434 10367,1435 10380,1437 10392,1439 10404,1441 10415,1444 10427,1447 10439,1450 10449,1454 10460,1458 10470,1462 10479,1467 10499,1478 10508,1484 10516,1490 10523,1496 10531,1503 10537,1510 10543,1518 10553,1534 10561,1550 10568,1569 10571,1588 10572,1609 10571,1623 10570,1637 10567,1650 10564,1663 10558,1675 10552,1687 10546,1699 10538,1710 10529,1720 10520,1730 10510,1739 10499,1748 10486,1755 10474,1762 10460,1769 10446,1774 10431,1780 10415,1784 10400,1787 10384,1791 10368,1793 10350,1795 10333,1795 10315,1796 10300,1796 10285,1795 10270,1794 10256,1792 10243,1790 10228,1787 10216,1784 10203,1781 10193,1777 10183,1773 10173,1769 10162,1764 10152,1758 10141,1751 10130,1744 10119,1736 10119,1788 9900,1788 9900,1308 Z"/>
        <path fill="none" stroke="rgb(0,0,0)" stroke-width="26" stroke-linejoin="miter" d="M 10134,1613 L 10134,1624 10136,1634 10138,1643 10141,1652 10145,1659 10148,1663 10150,1666 10153,1670 10156,1673 10159,1675 10163,1678 10172,1682 10176,1685 10180,1686 10184,1688 10188,1690 10193,1692 10197,1693 10202,1694 10207,1695 10212,1696 10217,1697 10222,1697 10227,1697 10234,1698 10239,1698 10244,1698 10249,1697 10254,1697 10259,1697 10264,1696 10269,1695 10273,1695 10278,1693 10282,1692 10286,1690 10290,1689 10294,1687 10299,1685 10303,1683 10306,1681 10310,1678 10313,1676 10317,1673 10319,1670 10322,1667 10325,1663 10327,1660 10331,1652 10334,1643 10336,1634 10338,1623 10338,1612 10338,1602 10336,1592 10334,1583 10331,1576 10327,1568 10322,1562 10319,1559 10316,1556 10313,1553 10310,1551 10303,1546 10299,1545 10295,1543 10291,1541 10287,1539 10283,1538 10279,1536 10275,1535 10271,1535 10266,1534 10262,1533 10257,1532 10253,1532 10248,1532 10243,1532 10230,1532 10225,1532 10219,1533 10214,1534 10209,1535 10204,1536 10199,1537 10194,1538 10190,1540 10185,1541 10181,1543 10177,1545 10173,1547 10164,1552 10160,1555 10157,1557 10154,1560 10151,1564 10148,1567 10146,1570 10141,1578 10138,1585 10136,1594 10134,1603 10134,1613 Z"/>
        <path fill="none" stroke="rgb(0,0,0)" stroke-width="26" stroke-linejoin="miter" d="M 10654,1615 L 10655,1595 10660,1577 10663,1568 10667,1559 10672,1550 10677,1542 10683,1534 10690,1526 10699,1518 10707,1511 10716,1504 10726,1497 10737,1490 10748,1484 10761,1477 10773,1472 10786,1466 10799,1461 10813,1456 10829,1452 10844,1448 10859,1445 10892,1440 10926,1436 10964,1433 11002,1432 11047,1433 11088,1436 11127,1441 11146,1444 11164,1447 11181,1451 11197,1456 11212,1461 11228,1466 11242,1472 11255,1478 11267,1485 11279,1493 11297,1506 11312,1518 11325,1532 11335,1547 11344,1562 11349,1579 11354,1595 11355,1613 11354,1633 11348,1651 11341,1669 11336,1677 11331,1686 11325,1694 11318,1702 11310,1710 11302,1717 11293,1724 11282,1731 11261,1744 11249,1751 11237,1757 11224,1762 11210,1767 11196,1772 11181,1776 11166,1780 11150,1783 11117,1788 11081,1792 11043,1795 11003,1796 10968,1795 10933,1793 10902,1790 10871,1785 10842,1779 10814,1772 10789,1763 10766,1753 10752,1746 10739,1739 10728,1732 10717,1725 10707,1717 10698,1709 10689,1700 10682,1692 10675,1684 10670,1674 10665,1665 10661,1656 10658,1646 10656,1635 10654,1615 Z"/>
        <path fill="none" stroke="rgb(0,0,0)" stroke-width="26" stroke-linejoin="miter" d="M 10888,1615 L 10888,1626 10890,1636 10893,1646 10897,1655 10901,1663 10904,1667 10907,1671 10910,1674 10913,1678 10917,1681 10921,1684 10925,1686 10929,1689 10934,1691 10938,1693 10943,1695 10948,1697 10953,1699 10959,1700 10964,1702 10969,1703 10975,1703 10980,1704 10986,1705 10992,1705 11004,1706 11010,1706 11016,1705 11022,1705 11029,1704 11034,1703 11040,1703 11045,1702 11051,1700 11056,1699 11061,1697 11065,1695 11070,1693 11074,1691 11079,1689 11083,1686 11087,1684 11092,1681 11095,1678 11099,1674 11102,1671 11105,1667 11107,1663 11112,1655 11115,1646 11118,1636 11119,1625 11120,1613 11120,1602 11118,1592 11116,1583 11112,1574 11108,1566 11105,1562 11102,1558 11099,1555 11096,1551 11092,1549 11087,1546 11079,1540 11074,1538 11070,1536 11065,1534 11061,1532 11056,1531 11051,1529 11046,1528 11041,1527 11035,1526 11030,1525 11024,1524 11018,1524 11012,1524 11006,1524 10994,1524 10988,1524 10982,1525 10976,1526 10971,1527 10965,1528 10960,1529 10954,1531 10949,1532 10944,1534 10939,1536 10935,1539 10930,1541 10922,1546 10918,1549 10914,1552 10911,1556 10908,1559 10905,1562 10902,1567 10897,1575 10894,1583 10890,1593 10889,1604 10888,1615 Z"/>
        <path fill="none" stroke="rgb(0,0,0)" stroke-width="26" stroke-linejoin="miter" d="M 11467,1654 L 11717,1654 11717,1788 11467,1788 11467,1654 Z"/>
        <path fill="none" stroke="rgb(0,0,0)" stroke-width="26" stroke-linejoin="miter" d="M 12119,1440 L 12230,1440 12230,1538 12119,1538 12119,1788 11885,1788 11885,1538 11797,1538 11797,1440 11885,1440 11885,1424 11886,1414 11887,1402 11890,1390 11893,1378 11895,1371 11898,1366 11901,1360 11904,1354 11908,1349 11913,1344 11918,1339 11923,1335 11929,1331 11935,1328 11942,1324 11950,1321 11958,1317 11966,1315 11975,1312 11985,1309 11995,1307 12007,1305 12021,1304 12034,1302 12049,1301 12065,1300 12102,1300 12136,1300 12177,1302 12281,1308 12254,1388 12217,1385 12200,1385 12193,1384 12186,1384 12179,1384 12172,1385 12166,1385 12160,1386 12155,1386 12150,1388 12148,1388 12146,1389 12144,1390 12141,1390 12138,1392 12135,1394 12132,1396 12129,1399 12127,1401 12125,1404 12123,1407 12122,1410 12121,1411 12121,1414 12120,1421 12119,1429 12119,1440 Z"/>
        <path fill="none" stroke="rgb(0,0,0)" stroke-width="26" stroke-linejoin="miter" d="M 12319,1440 L 12538,1440 12538,1497 12546,1488 12554,1480 12562,1472 12570,1466 12578,1460 12586,1454 12594,1450 12602,1446 12612,1443 12621,1440 12630,1437 12640,1436 12651,1434 12662,1433 12674,1432 12686,1432 12699,1432 12712,1433 12726,1434 12740,1437 12755,1439 12769,1443 12784,1446 12799,1451 12726,1546 12716,1543 12707,1541 12698,1539 12690,1538 12682,1537 12675,1536 12667,1536 12661,1536 12655,1536 12650,1536 12645,1536 12640,1537 12635,1538 12630,1539 12625,1540 12621,1541 12616,1543 12612,1544 12608,1546 12604,1548 12600,1550 12596,1552 12593,1554 12590,1557 12586,1561 12582,1566 12578,1571 12574,1576 12568,1587 12563,1601 12559,1616 12556,1633 12555,1651 12554,1671 12554,1788 12319,1788 12319,1440 Z"/>
       </g>
      </g>
     </g>
    </g>
   </g>
  </g>
 </g>
</svg>